<svg width="140" height="140" viewBox="0 0 140 140" fill="none" xmlns="http://www.w3.org/2000/svg">
    <circle cx="70" cy="70" r="70" fill="#FFC14A"/>
    <path d="M50.8033 107V50.8182H64.044V107H50.8033ZM57.4602 42.8445C55.3632 42.8445 53.5587 42.1495 52.0469 40.7596C50.535 39.3453 49.7791 37.6506 49.7791 35.6754C49.7791 33.6759 50.535 31.9812 52.0469 30.5913C53.5587 29.177 55.3632 28.4698 57.4602 28.4698C59.5817 28.4698 61.3861 29.177 62.8736 30.5913C64.3854 31.9812 65.1413 33.6759 65.1413 35.6754C65.1413 37.6506 64.3854 39.3453 62.8736 40.7596C61.3861 42.1495 59.5817 42.8445 57.4602 42.8445Z" fill="#7049DD"/>
    <path d="M53.4517 106V50.7273H63.2216V71.4006H63.6264C64.1302 70.393 64.8409 69.3224 65.7585 68.1889C66.6761 67.0374 67.9176 66.0568 69.483 65.2472C71.0483 64.4195 73.0455 64.0057 75.4744 64.0057C78.6771 64.0057 81.5649 64.8243 84.1378 66.4616C86.7287 68.081 88.7798 70.483 90.2912 73.6676C91.8206 76.8343 92.5852 80.7206 92.5852 85.3267C92.5852 89.8788 91.8385 93.7472 90.3452 96.9318C88.8518 100.116 86.8187 102.545 84.2457 104.219C81.6728 105.892 78.7581 106.729 75.5014 106.729C73.1264 106.729 71.1563 106.333 69.5909 105.541C68.0256 104.75 66.7661 103.796 65.8125 102.68C64.8769 101.547 64.1482 100.476 63.6264 99.4688H63.0597V106H53.4517ZM63.0327 85.2727C63.0327 87.9536 63.4105 90.3016 64.1662 92.3168C64.9399 94.3319 66.0464 95.9062 67.4858 97.0398C68.9432 98.1553 70.7064 98.7131 72.7756 98.7131C74.9347 98.7131 76.7429 98.1373 78.2003 96.9858C79.6577 95.8163 80.7552 94.224 81.4929 92.2088C82.2486 90.1757 82.6264 87.8636 82.6264 85.2727C82.6264 82.6998 82.2576 80.4148 81.5199 78.4176C80.7822 76.4205 79.6847 74.8551 78.2273 73.7216C76.7699 72.5881 74.9527 72.0213 72.7756 72.0213C70.6884 72.0213 68.9162 72.5701 67.4588 73.6676C66.0014 74.7652 64.8949 76.3035 64.1392 78.2827C63.4015 80.2618 63.0327 82.5919 63.0327 85.2727Z" fill="#7049DD"/>
</svg>
