<svg width="308" height="789" viewBox="0 0 308 789" fill="none" xmlns="http://www.w3.org/2000/svg">
    <path d="M43.0653 632V276.364H126.881V632H43.0653ZM85.2046 225.889C71.9299 225.889 60.5076 221.49 50.9375 212.692C41.3674 203.739 36.5824 193.011 36.5824 180.509C36.5824 167.851 41.3674 157.124 50.9375 148.325C60.5076 139.373 71.9299 134.896 85.2046 134.896C98.6335 134.896 110.056 139.373 119.472 148.325C129.042 157.124 133.827 167.851 133.827 180.509C133.827 193.011 129.042 203.739 119.472 212.692C110.056 221.49 98.6335 225.889 85.2046 225.889Z" fill="#7049DD"/>
    <path d="M65.1321 629V313.364H120.923V431.419H123.235C126.112 425.665 130.17 419.552 135.411 413.079C140.651 406.503 147.74 400.903 156.679 396.28C165.618 391.554 177.023 389.19 190.893 389.19C209.182 389.19 225.673 393.865 240.366 403.215C255.161 412.462 266.874 426.179 275.505 444.365C284.238 462.448 288.605 484.642 288.605 510.945C288.605 536.939 284.341 559.03 275.813 577.216C267.285 595.402 255.675 609.273 240.982 618.828C226.29 628.384 209.645 633.161 191.048 633.161C177.485 633.161 166.234 630.901 157.295 626.38C148.357 621.859 141.164 616.414 135.719 610.043C130.376 603.57 126.215 597.457 123.235 591.703H119.999V629H65.1321ZM119.844 510.636C119.844 525.946 122.002 539.354 126.317 550.862C130.736 562.369 137.054 571.359 145.274 577.832C153.597 584.203 163.666 587.388 175.482 587.388C187.811 587.388 198.137 584.1 206.46 577.524C214.782 570.846 221.049 561.753 225.262 550.245C229.577 538.635 231.735 525.432 231.735 510.636C231.735 495.944 229.629 482.895 225.416 471.49C221.204 460.085 214.936 451.146 206.614 444.673C198.291 438.2 187.914 434.964 175.482 434.964C163.563 434.964 153.442 438.098 145.12 444.365C136.798 450.633 130.479 459.417 126.163 470.719C121.951 482.022 119.844 495.327 119.844 510.636Z" fill="#7049DD"/>
</svg>
